<svg xmlns="http://www.w3.org/2000/svg" xmlns:xlink="http://www.w3.org/1999/xlink">

<symbol id="email" viewBox="0 0 321.705 321.705"><path d="M160.851,0C72.158,0,0.001,72.158,0.001,160.853s72.157,160.853,160.85,160.853
	c22.61,0,44.48-4.602,65.003-13.677c5.556-2.457,8.068-8.953,5.611-14.51c-2.458-5.557-8.956-8.066-14.51-5.611
	c-17.701,7.828-36.578,11.798-56.104,11.798c-76.562,0-138.85-62.289-138.85-138.853S84.289,22,160.851,22
	c76.564,0,138.854,62.289,138.854,138.853c0,14.509-2.227,28.803-6.616,42.484c-9.456,29.458-24.992,38.548-32.553,37.372
	c-7.251-1.136-7.814-11.979-7.814-15.275V94.789c0-6.075-4.925-11-11-11s-11,4.925-11,11v6.473
	c-16.863-19.746-41.929-32.281-69.87-32.281c-50.658,0-91.872,41.214-91.872,91.872s41.214,91.872,91.872,91.872
	c27.941,0,53.007-12.535,69.87-32.281v4.99c0,19.971,10.367,34.498,26.412,37.011c18.988,2.966,43.962-12.067,56.902-52.385
	c5.089-15.857,7.669-32.413,7.669-49.207C321.704,72.158,249.546,0,160.851,0z M160.851,230.725
	c-38.527,0-69.872-31.345-69.872-69.872s31.345-69.872,69.872-69.872c38.526,0,69.87,31.345,69.87,69.872
	S199.377,230.725,160.851,230.725z"/></symbol>

<symbol id="github" viewBox="0 0 512 512"><path d="m256 0c-140.699219 0-256 116.300781-256 257 0 139.882812 114.25 255 256 255 141.574219 0 256-114.945312 256-255 0-140.699219-115.300781-257-256-257zm45 477.5c-14.398438 3-29.699219 4.5-45 4.5s-30.601562-1.5-45-4.5v-70.199219c0-16.800781 4.5-22.800781 10.5-30.902343 3.054688-3.492188 4.898438-6.625 18.597656-27.296876l-23.097656-3.601562c-59.402344-8.699219-82.800781-39.601562-92.101562-63.601562-12-32.097657-5.699219-72.300782 15.902343-97.796876 3.300781-3.902343 6-10.503906 3.601563-17.402343-4.503906-13.800781-3.902344-35.699219-.902344-44.101563 15.90625 2.273438 32.261719 13.667969 45.902344 21.902344 6.285156 3.667969 9.582031 2.699219 12.597656 3 10.960938-2.28125 28.058594-7.800781 54.300781-7.800781 16.199219 0 33.300781 2.398437 50.101563 7.199219 3.003906-.070313 7.832031 2.484374 16.199218-2.398438 14.257813-8.6875 30.058594-19.691406 45.898438-21.902344 3 8.402344 3.601562 30.300782-.898438 44.101563-2.402343 6.898437.296876 13.5 3.601563 17.402343 21.597656 25.5 27.898437 65.699219 15.898437 97.796876-9.300781 24-32.699218 54.902343-92.101562 63.601562l-23.097656 3.601562c14.160156 21.367188 15.652344 23.929688 18.601562 27.296876 5.996094 8.101562 10.496094 14.101562 10.496094 30.902343zm30-8.699219v-61.5c0-17.101562-3.601562-28.5-8.402344-36.902343 45.601563-12.296876 78.003906-39.300782 92.402344-78 15.300781-40.796876 8.402344-89.398438-17.101562-123 4.503906-20.097657 4.503906-52.199219-6.296876-67.199219-4.800781-6.597657-11.402343-10.199219-19.800781-10.199219-.300781 0-.300781 0-.300781 0-23.261719 1.257812-41.570312 12.972656-61.199219 24.898438-18-4.800782-36.300781-7.199219-54.601562-7.199219-18.597657 0-37.199219 2.699219-53.695313 7.199219-20.664062-12.460938-38.796875-23.671876-62.703125-24.898438-7.5 0-14.101562 3.601562-18.902343 10.199219-10.796876 15-10.796876 47.101562-6.296876 67.199219-25.503906 33.601562-32.402343 82.5-17.101562 123 14.398438 38.699218 46.800781 65.703124 92.402344 78-3.722656 6.511718-6.667969 14.914062-7.828125 26.285156-9.210938 3.175781-17.199219 4.210937-24.628907 2.027344-7.835937-2.316407-13.941406-7.546876-19.246093-16.46875-11.914063-20.015626-32.207031-36.355469-55.3125-34.230469l2.636719 29.882812c10.699218-.980469 21.347656 10.339844 26.878906 19.671875 9.125 15.367188 21.417968 25.445313 36.546875 29.914063 11.230469 3.308593 21.496093 3.230469 32.550781.871093v40.449219c-87.300781-30.601562-151-114-151-211.800781 0-124.199219 101.800781-227 226-227s226 102.800781 226 227c0 97.800781-63.699219 181.199219-151 211.800781zm0 0"/></symbol>

<symbol id="rss" viewBox="0 0 512.00037 512"><path d="m75.996094 512c-41.902344 0-75.996094-34.105469-75.996094-76.023438 0-41.921874 34.09375-76.023437 75.996094-76.023437 41.90625 0 75.996094 34.101563 75.996094 76.023437 0 41.917969-34.089844 76.023438-75.996094 76.023438zm0-121.976562c-25.328125 0-45.9375 20.613281-45.9375 45.953124 0 25.339844 20.609375 45.953126 45.9375 45.953126 25.332031 0 45.9375-20.613282 45.9375-45.953126 0-25.339843-20.605469-45.953124-45.9375-45.953124zm0 0"/><path d="m510.96875 485.855469h-125.488281l.871093-15.859375c.335938-6.09375.507813-12.207032.507813-18.171875 0-180.105469-146.472656-326.632813-326.515625-326.632813l-.648438.003906-15.0625.03125v-125.1914058l14.996094-.0351562h1.035156c109.808594 0 215.851563 40.289062 298.71875 113.511719 83.761719 74.015625 136.90625 175.84375 149.648438 286.722656 2.710938 23.617187 3.570312 47.582031 2.558594 71.234375zm-94.074219-30.066407h65.03125c.148438-17.375-.773437-34.847656-2.757812-52.121093-11.890625-103.488281-61.5-198.53125-139.6875-267.621094-73.820313-65.234375-167.347657-102.46875-264.789063-105.742187v65.101562c190 7.550781 342.226563 164.535156 342.226563 356.417969 0 1.316406-.007813 2.636719-.023438 3.964843zm0 0"/><path d="m341.957031 485.855469h-124.789062l1.8125-16.660157c.628906-5.792968.949219-11.636718.949219-17.371093 0-88.027344-71.589844-159.640625-159.582032-159.640625l-.617187.007812-15.09375.066406v-123.78125l14.980469-.046874c.304687-.003907.617187-.003907.917968-.003907 68.847656 0 135.320313 25.230469 187.285156 71.101563 52.601563 46.433594 85.976563 110.335937 93.972657 179.9375 1.992187 17.355468 2.382812 34.992187 1.152343 52.417968zm-92.011719-30.066407h63.613282c.164062-10.988281-.378906-22-1.628906-32.890624-7.148438-62.203126-36.976563-119.316407-83.996094-160.824219-42.890625-37.859375-96.816406-59.996094-153.238282-63.179688v63.757813c97.894532 7.359375 175.292969 89.394531 175.292969 189.171875-.003906 1.316406-.015625 2.636719-.042969 3.964843zm0 0"/></symbol>

<symbol id="linkedin" viewBox="0 0 512 512"><path d="m132.917969 512h-132.367188v-356.671875h132.367188zm-102.398438-30h72.429688v-296.671875h-72.429688zm0 0"/><path d="m512 512h-129.679688l.054688-157.789062c.542969-25.609376-9.792969-46.734376-27.648438-56.511719-12.261718-6.714844-26.371093-6.734375-39.609374-.265625l-1.140626 214.566406h-135.71875v-356.671875h135.796876v14.496094c42.191406-17.105469 86.933593-14.636719 125.8125 7.601562 43.820312 25.066407 72.132812 71.410157 72.132812 118.066407zm-99.703125-30h69.734375v-186.507812c0-36.082032-22.386719-72.199219-57.03125-92.019532-16.898438-9.667968-35.90625-14.800781-54.964844-14.851562-.089844 0-.183594 0-.277344 0-21.328124 0-42.546874 6.140625-63.078124 18.25l-22.589844 13.324218v-34.867187h-75.863282v296.671875h75.941407l1.066406-201.234375 6.59375-4.429687c24.277344-16.308594 53.167969-18.160157 77.28125-4.957032 13.304687 7.285156 24.34375 18.6875 31.925781 32.964844 7.757813 14.621094 11.667969 32.023438 11.304688 50.339844zm0 0"/><path d="m66.460938 133.054688c-36.648438 0-66.460938-29.84375-66.460938-66.527344s29.8125-66.527344 66.460938-66.527344c36.644531 0 66.457031 29.84375 66.457031 66.527344s-29.8125 66.527344-66.457031 66.527344zm0-103.054688c-20.121094 0-36.492188 16.386719-36.492188 36.527344 0 20.144531 16.367188 36.53125 36.492188 36.53125 20.121093 0 36.488281-16.386719 36.488281-36.53125 0-20.140625-16.367188-36.527344-36.488281-36.527344zm0 0"/></symbol>

<symbol id="gitlab" fill-rule="evenodd" clip-rule="evenodd" stroke-linejoin="round" stroke-miterlimit="1.414" viewBox="0 0 1792 1792">
  <path d="M104 706l792 1015-868-630q-18-13-25-34.5t0-42.5l101-308zm462 0h660l-330 1015zm-198-612l198 612h-462l198-612q8-23 33-23t33 23zm1320 612l101 308q7 21 0 42.5t-25 34.5l-868 630 792-1015zm0 0h-462l198-612q8-23 33-23t33 23z"/>
</symbol>

</svg>
