<!-- downloaded from https://iconmonstr.com/ -->
<svg xmlns="http://www.w3.org/2000/svg" xmlns:xlink="http://www.w3.org/1999/xlink">

	<symbol id="email" width="24" height="24" viewBox="0 0 24 24">
		<path d="M12 2.02c5.514 0 10 4.486 10 10s-4.486 10-10 10-10-4.486-10-10 4.486-10 10-10zm0-2c-6.627 0-12 5.373-12 12s5.373 12 12 12 12-5.373 12-12-5.373-12-12-12zm0 12.55l-5.992-4.57h11.983l-5.991 4.57zm0 1.288l-6-4.629v6.771h12v-6.771l-6 4.629z" />
	</symbol>

	<symbol id="github" width="24" height="24" viewBox="0 0 24 24">
		<path d="M12 2c5.514 0 10 4.486 10 10s-4.486 10-10 10-10-4.486-10-10 4.486-10 10-10zm0-2c-6.627 0-12 5.373-12 12s5.373 12 12 12 12-5.373 12-12-5.373-12-12-12zm0 6c-3.313 0-6 2.686-6 6 0 2.651 1.719 4.9 4.104 5.693.3.056.396-.13.396-.289v-1.117c-1.669.363-2.017-.707-2.017-.707-.272-.693-.666-.878-.666-.878-.544-.373.041-.365.041-.365.603.042.92.619.92.619.535.917 1.403.652 1.746.499.054-.388.209-.652.381-.802-1.333-.152-2.733-.667-2.733-2.965 0-.655.234-1.19.618-1.61-.062-.153-.268-.764.058-1.59 0 0 .504-.161 1.65.615.479-.133.992-.199 1.502-.202.51.002 1.023.069 1.503.202 1.146-.776 1.648-.615 1.648-.615.327.826.121 1.437.06 1.588.385.42.617.955.617 1.61 0 2.305-1.404 2.812-2.74 2.96.216.186.412.551.412 1.111v1.646c0 .16.096.347.4.288 2.383-.793 4.1-3.041 4.1-5.691 0-3.314-2.687-6-6-6z" />
	</symbol>

	<symbol id="rss" width="24" height="24" viewBox="0 0 24 24">
		<path d="M12 2c5.514 0 10 4.486 10 10s-4.486 10-10 10-10-4.486-10-10 4.486-10 10-10zm0-2c-6.627 0-12 5.373-12 12s5.373 12 12 12 12-5.373 12-12-5.373-12-12-12zm-1.29 14.646c0 .748-.607 1.354-1.354 1.354-.749 0-1.356-.606-1.356-1.354 0-.747.607-1.353 1.355-1.353.748.001 1.355.606 1.355 1.353zm-2.71-5.237v2.004c2.521.025 4.567 2.068 4.592 4.587h2.008c-.026-3.629-2.965-6.566-6.6-6.591zm0-1.404c4.407.02 7.98 3.581 7.993 7.995h2.007c-.012-5.513-4.48-9.981-10-10v2.005z" />
	</symbol>

	<symbol id="linkedin" width="24" height="24" viewBox="0 0 24 24">
		<path d="M12 2c5.514 0 10 4.486 10 10s-4.486 10-10 10-10-4.486-10-10 4.486-10 10-10zm0-2c-6.627 0-12 5.373-12 12s5.373 12 12 12 12-5.373 12-12-5.373-12-12-12zm-2 8c0 .557-.447 1.008-1 1.008s-1-.45-1-1.008c0-.557.447-1.008 1-1.008s1 .452 1 1.008zm0 2h-2v6h2v-6zm3 0h-2v6h2v-2.861c0-1.722 2.002-1.881 2.002 0v2.861h1.998v-3.359c0-3.284-3.128-3.164-4-1.548v-1.093z" />
	</symbol>

	<symbol id="gitlab" viewBox="0 0 28 28">
		<path d="M6.585938453674316,0 L2.28125,11.48046875 L2.039062976837158,12.1328125 L0,17.5703125 L14.203125,27.90234375 L28.40625,17.5703125 L26.3671875,12.1328125 L21.81640625,0 L18.0859375,11.48046875 L10.320313453674316,11.48046875 zM6.453125,6.0546875 L8.21875,11.48046875 L4.417969226837158,11.48046875 zM21.953125,6.0546875 L23.98828125,11.48046875 L20.1875,11.48046875 zM3.667969226837158,13.48046875 L8.867188453674316,13.48046875 L12.296875,24.04296875 L2.40625,16.84765625 zM10.96875,13.48046875 L17.4375,13.48046875 L14.203125,23.4296875 zM19.5390625,13.48046875 L24.734375,13.48046875 L26,16.84765625 L16.10546875,24.04296875 z" />
	</symbol>

	<symbol id="home" viewBox="0 0 88 82">
		<g>
			<path stroke="currentColor" d="m77.789999,29.775379l0,41.207953c0,3.623131 -3.054,6.557974 -6.822,6.557974l-55.936,0c-3.769,0 -6.822,-2.935804 -6.822,-6.557974l0,-41.150275" fill="none" stroke-linecap="round" stroke-linejoin="round" stroke-miterlimit="10" stroke-width="5" id="svg_5" />
			<polyline stroke="currentColor" fill="none" points="2.5,32.22292240867591 43.250761324534324,2.5 83.39060858773155,32.22292240867591 " stroke-linecap="round" stroke-linejoin="round" stroke-miterlimit="10" stroke-width="5" id="svg_2" />
			<path d="m32.5735,74.820999l0,-25.387c0,0 3.342,-5.843 10.428,-5.843c7.084,0 10.425,5.843 10.425,5.843l0,25.387" fill="none" stroke="currentColor" stroke-linecap="round" stroke-linejoin="round" stroke-miterlimit="10" stroke-width="5" id="svg_3" />
			<polyline fill="none" points="17.341001510620117,18.854999542236328 17.341001510620117,2.5 26.43699836730957,2.5 26.43699836730957,13.117000579833984 " stroke="currentColor" stroke-linecap="round" stroke-linejoin="round" stroke-miterlimit="10" stroke-width="5" id="svg_4" />
		</g>
	</symbol>

	<symbol id="twitter" width="24" height="24" viewBox="0 0 24 24">
		<path d="M12 2c5.514 0 10 4.486 10 10s-4.486 10-10 10-10-4.486-10-10 4.486-10 10-10zm0-2c-6.627 0-12 5.373-12 12s5.373 12 12 12 12-5.373 12-12-5.373-12-12-12zm6.5 8.778c-.441.196-.916.328-1.414.388.509-.305.898-.787 1.083-1.362-.476.282-1.003.487-1.564.597-.448-.479-1.089-.778-1.796-.778-1.59 0-2.758 1.483-2.399 3.023-2.045-.103-3.86-1.083-5.074-2.572-.645 1.106-.334 2.554.762 3.287-.403-.013-.782-.124-1.114-.308-.027 1.14.791 2.207 1.975 2.445-.346.094-.726.116-1.112.042.313.978 1.224 1.689 2.3 1.709-1.037.812-2.34 1.175-3.647 1.021 1.09.699 2.383 1.106 3.773 1.106 4.572 0 7.154-3.861 6.998-7.324.482-.346.899-.78 1.229-1.274z" />
	</symbol>

</svg>